<?xml version="1.0" encoding="UTF-8"?>
<svg xmlns="http://www.w3.org/2000/svg" xmlns:xlink="http://www.w3.org/1999/xlink" width="30px" height="30px" viewBox="0 0 30 30" version="1.1">
<g id="surface1">
<path style=" stroke:none;fill-rule:nonzero;fill:rgb(0%,0%,0%);fill-opacity:1;" d="M 6.875 27.5 C 6.355469 27.5 5.910156 27.316406 5.546875 26.953125 C 5.183594 26.589844 5 26.144531 5 25.625 L 5 12.0625 C 5 11.542969 5.183594 11.097656 5.546875 10.734375 C 5.910156 10.371094 6.355469 10.1875 6.875 10.1875 L 9.0625 10.1875 L 9.0625 7.1875 C 9.0625 5.542969 9.640625 4.140625 10.796875 2.984375 C 11.953125 1.828125 13.355469 1.25 15 1.25 C 16.644531 1.25 18.046875 1.828125 19.203125 2.984375 C 20.359375 4.140625 20.9375 5.542969 20.9375 7.1875 L 20.9375 10.1875 L 23.125 10.1875 C 23.644531 10.1875 24.089844 10.371094 24.453125 10.734375 C 24.816406 11.097656 25 11.542969 25 12.0625 L 25 25.625 C 25 26.144531 24.816406 26.589844 24.453125 26.953125 C 24.089844 27.316406 23.644531 27.5 23.125 27.5 Z M 6.875 25.625 L 23.125 25.625 L 23.125 12.0625 L 6.875 12.0625 Z M 15 21.25 C 15.667969 21.25 16.234375 21.019531 16.703125 20.5625 C 17.171875 20.105469 17.40625 19.550781 17.40625 18.90625 C 17.40625 18.28125 17.171875 17.714844 16.703125 17.203125 C 16.234375 16.691406 15.667969 16.4375 15 16.4375 C 14.332031 16.4375 13.765625 16.691406 13.296875 17.203125 C 12.828125 17.714844 12.59375 18.28125 12.59375 18.90625 C 12.59375 19.550781 12.828125 20.105469 13.296875 20.5625 C 13.765625 21.019531 14.332031 21.25 15 21.25 Z M 10.9375 10.1875 L 19.0625 10.1875 L 19.0625 7.1875 C 19.0625 6.0625 18.667969 5.105469 17.875 4.3125 C 17.082031 3.519531 16.125 3.125 15 3.125 C 13.875 3.125 12.917969 3.519531 12.125 4.3125 C 11.332031 5.105469 10.9375 6.0625 10.9375 7.1875 Z M 6.875 25.625 L 6.875 12.0625 Z M 6.875 25.625 "/>
</g>
</svg>
