<?xml version="1.0" encoding="UTF-8"?>
<svg xmlns="http://www.w3.org/2000/svg" xmlns:xlink="http://www.w3.org/1999/xlink" width="30px" height="30px" viewBox="0 0 30 30" version="1.1">
<g id="surface1">
<path style=" stroke:none;fill-rule:nonzero;fill:rgb(0%,0%,0%);fill-opacity:1;" d="M 15 14.96875 C 13.625 14.96875 12.5 14.53125 11.625 13.65625 C 10.75 12.78125 10.3125 11.65625 10.3125 10.28125 C 10.3125 8.90625 10.75 7.78125 11.625 6.90625 C 12.5 6.03125 13.625 5.59375 15 5.59375 C 16.375 5.59375 17.5 6.03125 18.375 6.90625 C 19.25 7.78125 19.6875 8.90625 19.6875 10.28125 C 19.6875 11.65625 19.25 12.78125 18.375 13.65625 C 17.5 14.53125 16.375 14.96875 15 14.96875 Z M 5 25 L 5 22.0625 C 5 21.269531 5.199219 20.59375 5.59375 20.03125 C 5.988281 19.46875 6.5 19.042969 7.125 18.75 C 8.519531 18.125 9.859375 17.65625 11.140625 17.34375 C 12.421875 17.03125 13.707031 16.875 15 16.875 C 16.292969 16.875 17.574219 17.035156 18.84375 17.359375 C 20.113281 17.683594 21.449219 18.144531 22.84375 18.75 C 23.488281 19.042969 24.011719 19.46875 24.40625 20.03125 C 24.800781 20.59375 25 21.269531 25 22.0625 L 25 25 Z M 6.875 23.125 L 23.125 23.125 L 23.125 22.0625 C 23.125 21.730469 23.027344 21.410156 22.828125 21.109375 C 22.628906 20.808594 22.386719 20.582031 22.09375 20.4375 C 20.761719 19.792969 19.542969 19.347656 18.4375 19.109375 C 17.332031 18.871094 16.1875 18.75 15 18.75 C 13.8125 18.75 12.65625 18.871094 11.53125 19.109375 C 10.40625 19.347656 9.1875 19.792969 7.875 20.4375 C 7.582031 20.582031 7.34375 20.808594 7.15625 21.109375 C 6.96875 21.410156 6.875 21.730469 6.875 22.0625 Z M 15 13.09375 C 15.8125 13.09375 16.484375 12.828125 17.015625 12.296875 C 17.546875 11.765625 17.8125 11.09375 17.8125 10.28125 C 17.8125 9.46875 17.546875 8.796875 17.015625 8.265625 C 16.484375 7.734375 15.8125 7.46875 15 7.46875 C 14.1875 7.46875 13.515625 7.734375 12.984375 8.265625 C 12.453125 8.796875 12.1875 9.46875 12.1875 10.28125 C 12.1875 11.09375 12.453125 11.765625 12.984375 12.296875 C 13.515625 12.828125 14.1875 13.09375 15 13.09375 Z M 15 10.28125 Z M 15 23.125 Z M 15 23.125 "/>
</g>
</svg>
